<svg width="970" height="19" viewBox="0 0 349 19" fill="none" xmlns="http://www.w3.org/2000/svg">
<path d="M0.402344 9.81641L347.999 9.66995" stroke="#747474" stroke-width="0.5" stroke-linecap="round"/>
<path d="M281.472 7.37271C281.472 7.09136 281.7 6.86328 281.981 6.86328C282.262 6.86328 282.491 7.09136 282.491 7.37272V9.81501H281.472V7.37271Z" fill="#747474"/>
<path d="M219.066 7.37271C219.066 7.09136 219.294 6.86328 219.576 6.86328V6.86328C219.857 6.86328 220.085 7.09136 220.085 7.37272V9.81501H219.066V7.37271Z" fill="#747474"/>
<path d="M156.661 7.37271C156.661 7.09136 156.889 6.86328 157.171 6.86328V6.86328C157.452 6.86328 157.68 7.09136 157.68 7.37272V9.81501H156.661V7.37271Z" fill="#747474"/>
<path d="M94.2559 7.37271C94.2559 7.09136 94.4839 6.86328 94.7653 6.86328V6.86328C95.0466 6.86328 95.2747 7.09136 95.2747 7.37272V9.81501H94.2559V7.37271Z" fill="#747474"/>
<path d="M31.8506 7.37271C31.8506 7.09136 32.0787 6.86328 32.36 6.86328V6.86328C32.6414 6.86328 32.8695 7.09136 32.8695 7.37272V9.81501H31.8506V7.37271Z" fill="#747474"/>
<path d="M286.312 5.40592C286.312 5.12457 286.54 4.89648 286.821 4.89648C287.102 4.89648 287.33 5.12457 287.33 5.40592V9.81603H286.312V5.40592Z" fill="#747474"/>
<path d="M223.906 5.40592C223.906 5.12457 224.134 4.89648 224.416 4.89648V4.89648C224.697 4.89648 224.925 5.12457 224.925 5.40592V9.81603H223.906V5.40592Z" fill="#747474"/>
<path d="M161.501 5.40592C161.501 5.12457 161.729 4.89648 162.01 4.89648V4.89648C162.292 4.89648 162.52 5.12457 162.52 5.40592V9.81603H161.501V5.40592Z" fill="#747474"/>
<path d="M99.0957 5.40592C99.0957 5.12457 99.3238 4.89648 99.6051 4.89648V4.89648C99.8865 4.89648 100.115 5.12457 100.115 5.40592V9.81603H99.0957V5.40592Z" fill="#747474"/>
<path d="M36.6904 5.40592C36.6904 5.12457 36.9185 4.89648 37.1999 4.89648V4.89648C37.4812 4.89648 37.7093 5.12457 37.7093 5.40592V9.81603H36.6904V5.40592Z" fill="#747474"/>
<path d="M291.15 7.09147C291.15 6.81011 291.378 6.58203 291.66 6.58203C291.941 6.58203 292.169 6.81011 292.169 7.09146V9.81488H291.15V7.09147Z" fill="#747474"/>
<path d="M228.745 7.09147C228.745 6.81011 228.973 6.58203 229.255 6.58203V6.58203C229.536 6.58203 229.764 6.81011 229.764 7.09147V9.81488H228.745V7.09147Z" fill="#747474"/>
<path d="M166.34 7.09147C166.34 6.81011 166.568 6.58203 166.849 6.58203V6.58203C167.131 6.58203 167.359 6.81011 167.359 7.09147V9.81488H166.34V7.09147Z" fill="#747474"/>
<path d="M103.935 7.09147C103.935 6.81011 104.163 6.58203 104.444 6.58203V6.58203C104.725 6.58203 104.953 6.81011 104.953 7.09147V9.81488H103.935V7.09147Z" fill="#747474"/>
<path d="M41.5293 7.09147C41.5293 6.81011 41.7574 6.58203 42.0387 6.58203V6.58203C42.3201 6.58203 42.5482 6.81011 42.5482 7.09147V9.81488H41.5293V7.09147Z" fill="#747474"/>
<path d="M295.99 5.12467C295.99 4.84332 296.218 4.61523 296.5 4.61523C296.781 4.61523 297.009 4.84332 297.009 5.12467V9.8159H295.99V5.12467Z" fill="#747474"/>
<path d="M233.585 5.12467C233.585 4.84332 233.813 4.61523 234.094 4.61523V4.61523C234.376 4.61523 234.604 4.84332 234.604 5.12467V9.8159H233.585V5.12467Z" fill="#747474"/>
<path d="M171.18 5.12467C171.18 4.84332 171.408 4.61523 171.689 4.61523V4.61523C171.97 4.61523 172.199 4.84332 172.199 5.12467V9.8159H171.18V5.12467Z" fill="#747474"/>
<path d="M108.774 5.12467C108.774 4.84332 109.002 4.61523 109.284 4.61523V4.61523C109.565 4.61523 109.793 4.84332 109.793 5.12467V9.8159H108.774V5.12467Z" fill="#747474"/>
<path d="M46.3691 5.12467C46.3691 4.84332 46.5972 4.61523 46.8786 4.61523V4.61523C47.1599 4.61523 47.388 4.84332 47.388 5.12467V9.8159H46.3691V5.12467Z" fill="#747474"/>
<path d="M300.83 7.09147C300.83 6.81011 301.058 6.58203 301.34 6.58203C301.621 6.58203 301.849 6.81011 301.849 7.09146V9.81488H300.83V7.09147Z" fill="#747474"/>
<path d="M238.425 7.09147C238.425 6.81011 238.653 6.58203 238.934 6.58203V6.58203C239.216 6.58203 239.444 6.81011 239.444 7.09147V9.81488H238.425V7.09147Z" fill="#747474"/>
<path d="M176.02 7.09147C176.02 6.81011 176.248 6.58203 176.529 6.58203V6.58203C176.81 6.58203 177.038 6.81011 177.038 7.09147V9.81488H176.02V7.09147Z" fill="#747474"/>
<path d="M113.614 7.09147C113.614 6.81011 113.842 6.58203 114.124 6.58203V6.58203C114.405 6.58203 114.633 6.81011 114.633 7.09147V9.81488H113.614V7.09147Z" fill="#747474"/>
<path d="M51.209 7.09147C51.209 6.81011 51.4371 6.58203 51.7184 6.58203V6.58203C51.9998 6.58203 52.2279 6.81011 52.2279 7.09147V9.81488H51.209V7.09147Z" fill="#747474"/>
<path d="M305.67 5.40592C305.67 5.12457 305.898 4.89648 306.179 4.89648C306.461 4.89648 306.689 5.12457 306.689 5.40592V9.81603H305.67V5.40592Z" fill="#747474"/>
<path d="M243.265 5.40592C243.265 5.12457 243.493 4.89648 243.774 4.89648V4.89648C244.055 4.89648 244.284 5.12457 244.284 5.40592V9.81603H243.265V5.40592Z" fill="#747474"/>
<path d="M180.859 5.40592C180.859 5.12457 181.087 4.89648 181.369 4.89648V4.89648C181.65 4.89648 181.878 5.12457 181.878 5.40592V9.81603H180.859V5.40592Z" fill="#747474"/>
<path d="M118.454 5.40592C118.454 5.12457 118.682 4.89648 118.964 4.89648V4.89648C119.245 4.89648 119.473 5.12457 119.473 5.40592V9.81603H118.454V5.40592Z" fill="#747474"/>
<path d="M56.0488 5.40592C56.0488 5.12457 56.2769 4.89648 56.5583 4.89648V4.89648C56.8396 4.89648 57.0677 5.12457 57.0677 5.40592V9.81603H56.0488V5.40592Z" fill="#747474"/>
<path d="M310.51 7.37271C310.51 7.09136 310.738 6.86328 311.019 6.86328C311.301 6.86328 311.529 7.09136 311.529 7.37272V9.81501H310.51V7.37271Z" fill="#747474"/>
<path d="M248.104 7.37271C248.104 7.09136 248.333 6.86328 248.614 6.86328V6.86328C248.895 6.86328 249.123 7.09136 249.123 7.37272V9.81501H248.104V7.37271Z" fill="#747474"/>
<path d="M185.699 7.37271C185.699 7.09136 185.927 6.86328 186.209 6.86328V6.86328C186.49 6.86328 186.718 7.09136 186.718 7.37272V9.81501H185.699V7.37271Z" fill="#747474"/>
<path d="M123.294 7.37271C123.294 7.09136 123.522 6.86328 123.803 6.86328V6.86328C124.085 6.86328 124.313 7.09136 124.313 7.37272V9.81501H123.294V7.37271Z" fill="#747474"/>
<path d="M60.8887 7.37271C60.8887 7.09136 61.1168 6.86328 61.3981 6.86328V6.86328C61.6795 6.86328 61.9075 7.09136 61.9075 7.37272V9.81501H60.8887V7.37271Z" fill="#747474"/>
<path d="M315.35 8.35709C315.35 8.07574 315.578 7.84766 315.859 7.84766C316.14 7.84766 316.368 8.07574 316.368 8.35709V9.81547H315.35V8.35709Z" fill="#747474"/>
<path d="M252.944 8.35709C252.944 8.07574 253.172 7.84766 253.454 7.84766V7.84766C253.735 7.84766 253.963 8.07574 253.963 8.35709V9.81547H252.944V8.35709Z" fill="#747474"/>
<path d="M190.539 8.35709C190.539 8.07574 190.767 7.84766 191.048 7.84766V7.84766C191.33 7.84766 191.558 8.07574 191.558 8.35709V9.81547H190.539V8.35709Z" fill="#747474"/>
<path d="M128.134 8.35709C128.134 8.07574 128.362 7.84766 128.643 7.84766V7.84766C128.925 7.84766 129.153 8.07574 129.153 8.35709V9.81547H128.134V8.35709Z" fill="#747474"/>
<path d="M65.7285 8.35709C65.7285 8.07574 65.9566 7.84766 66.2379 7.84766V7.84766C66.5193 7.84766 66.7474 8.07574 66.7474 8.35709V9.81547H65.7285V8.35709Z" fill="#747474"/>
<path d="M3.32324 8.35709C3.32324 8.07574 3.55132 7.84766 3.83268 7.84766V7.84766C4.11403 7.84766 4.34211 8.07574 4.34211 8.35709V9.81547H3.32324V8.35709Z" fill="#747474"/>
<path d="M320.188 6.10709C320.188 5.82574 320.417 5.59766 320.698 5.59766C320.979 5.59766 321.207 5.82574 321.207 6.10709V9.81441H320.188V6.10709Z" fill="#747474"/>
<path d="M257.783 6.10709C257.783 5.82574 258.011 5.59766 258.293 5.59766V5.59766C258.574 5.59766 258.802 5.82574 258.802 6.10709V9.81441H257.783V6.10709Z" fill="#747474"/>
<path d="M195.378 6.10709C195.378 5.82574 195.606 5.59766 195.887 5.59766V5.59766C196.169 5.59766 196.397 5.82574 196.397 6.10709V9.81441H195.378V6.10709Z" fill="#747474"/>
<path d="M132.973 6.10709C132.973 5.82574 133.201 5.59766 133.482 5.59766V5.59766C133.763 5.59766 133.992 5.82574 133.992 6.10709V9.81441H132.973V6.10709Z" fill="#747474"/>
<path d="M70.5674 6.10709C70.5674 5.82574 70.7955 5.59766 71.0768 5.59766V5.59766C71.3582 5.59766 71.5863 5.82574 71.5863 6.10709V9.81441H70.5674V6.10709Z" fill="#747474"/>
<path d="M8.16211 6.10709C8.16211 5.82574 8.39019 5.59766 8.67154 5.59766V5.59766C8.9529 5.59766 9.18098 5.82574 9.18098 6.10709V9.81441H8.16211V6.10709Z" fill="#747474"/>
<path d="M325.028 3.85904C325.028 3.57769 325.256 3.34961 325.538 3.34961C325.819 3.34961 326.047 3.57769 326.047 3.85904V9.8153H325.028V3.85904Z" fill="#747474"/>
<path d="M262.623 3.85904C262.623 3.57769 262.851 3.34961 263.132 3.34961V3.34961C263.414 3.34961 263.642 3.57769 263.642 3.85904V9.8153H262.623V3.85904Z" fill="#747474"/>
<path d="M200.218 3.85904C200.218 3.57769 200.446 3.34961 200.727 3.34961V3.34961C201.009 3.34961 201.237 3.57769 201.237 3.85904V9.8153H200.218V3.85904Z" fill="#747474"/>
<path d="M137.812 3.85904C137.812 3.57769 138.041 3.34961 138.322 3.34961V3.34961C138.603 3.34961 138.831 3.57769 138.831 3.85904V9.8153H137.812V3.85904Z" fill="#747474"/>
<path d="M75.4072 3.85904C75.4072 3.57769 75.6353 3.34961 75.9167 3.34961V3.34961C76.198 3.34961 76.4261 3.57769 76.4261 3.85904V9.8153H75.4072V3.85904Z" fill="#747474"/>
<path d="M13.002 3.85904C13.002 3.57769 13.23 3.34961 13.5114 3.34961V3.34961C13.7927 3.34961 14.0208 3.57769 14.0208 3.85904V9.8153H13.002V3.85904Z" fill="#747474"/>
<path d="M329.868 1.18912C329.868 0.907769 330.096 0.679688 330.378 0.679688C330.659 0.679688 330.887 0.907769 330.887 1.18912V9.81599H329.868V1.18912Z" fill="#747474"/>
<path d="M267.463 1.18912C267.463 0.907769 267.691 0.679688 267.972 0.679688V0.679688C268.254 0.679688 268.482 0.907769 268.482 1.18912V9.81599H267.463V1.18912Z" fill="#747474"/>
<path d="M205.058 1.18912C205.058 0.907769 205.286 0.679688 205.567 0.679688V0.679688C205.848 0.679688 206.076 0.907769 206.076 1.18912V9.81599H205.058V1.18912Z" fill="#747474"/>
<path d="M142.652 1.18912C142.652 0.907769 142.88 0.679688 143.162 0.679688V0.679688C143.443 0.679688 143.671 0.907769 143.671 1.18912V9.81599H142.652V1.18912Z" fill="#747474"/>
<path d="M80.2471 1.18912C80.2471 0.907769 80.4752 0.679688 80.7565 0.679688V0.679688C81.0379 0.679688 81.2659 0.907769 81.2659 1.18912V9.81599H80.2471V1.18912Z" fill="#747474"/>
<path d="M17.8418 1.18912C17.8418 0.907769 18.0699 0.679688 18.3512 0.679688V0.679688C18.6326 0.679688 18.8607 0.907769 18.8607 1.18912V9.81599H17.8418V1.18912Z" fill="#747474"/>
<path d="M334.707 3.43717C334.707 3.15582 334.935 2.92773 335.216 2.92773C335.498 2.92773 335.726 3.15582 335.726 3.43717V9.8151H334.707V3.43717Z" fill="#747474"/>
<path d="M272.302 3.43717C272.302 3.15582 272.53 2.92773 272.811 2.92773V2.92773C273.093 2.92773 273.321 3.15582 273.321 3.43717V9.8151H272.302V3.43717Z" fill="#747474"/>
<path d="M209.896 3.43717C209.896 3.15582 210.125 2.92773 210.406 2.92773V2.92773C210.687 2.92773 210.915 3.15582 210.915 3.43717V9.8151H209.896V3.43717Z" fill="#747474"/>
<path d="M147.491 3.43717C147.491 3.15582 147.719 2.92773 148.001 2.92773V2.92773C148.282 2.92773 148.51 3.15582 148.51 3.43717V9.8151H147.491V3.43717Z" fill="#747474"/>
<path d="M85.0859 3.43717C85.0859 3.15582 85.314 2.92773 85.5954 2.92773V2.92773C85.8767 2.92773 86.1048 3.15582 86.1048 3.43717V9.8151H85.0859V3.43717Z" fill="#747474"/>
<path d="M22.6807 3.43717C22.6807 3.15582 22.9087 2.92773 23.1901 2.92773V2.92773C23.4715 2.92773 23.6995 3.15582 23.6995 3.43717V9.8151H22.6807V3.43717Z" fill="#747474"/>
<path d="M277.142 5.54459C277.142 5.26324 277.37 5.03516 277.651 5.03516V5.03516C277.932 5.03516 278.16 5.26324 278.16 5.54459V9.81414H277.142V5.54459Z" fill="#747474"/>
<path d="M214.736 5.54459C214.736 5.26324 214.964 5.03516 215.246 5.03516V5.03516C215.527 5.03516 215.755 5.26324 215.755 5.54459V9.81414H214.736V5.54459Z" fill="#747474"/>
<path d="M152.331 5.54459C152.331 5.26324 152.559 5.03516 152.84 5.03516V5.03516C153.122 5.03516 153.35 5.26324 153.35 5.54459V9.81414H152.331V5.54459Z" fill="#747474"/>
<path d="M89.9258 5.54459C89.9258 5.26324 90.1539 5.03516 90.4352 5.03516V5.03516C90.7166 5.03516 90.9446 5.26324 90.9446 5.54459V9.81414H89.9258V5.54459Z" fill="#747474"/>
<path d="M27.5205 5.54459C27.5205 5.26324 27.7486 5.03516 28.0299 5.03516V5.03516C28.3113 5.03516 28.5394 5.26324 28.5394 5.54459V9.81414H27.5205V5.54459Z" fill="#747474"/>
<path fill-rule="evenodd" clip-rule="evenodd" d="M344.896 7.14453C344.615 7.14453 344.387 7.37262 344.387 7.65399V9.81512H345.406V7.65399C345.406 7.37262 345.177 7.14453 344.896 7.14453ZM344.897 12.4883C345.178 12.4883 345.406 12.2602 345.406 11.9788V9.81769H344.387V11.9788C344.387 12.2602 344.615 12.4883 344.897 12.4883Z" fill="#747474"/>
<path fill-rule="evenodd" clip-rule="evenodd" d="M340.056 5.03516C339.775 5.03516 339.547 5.26324 339.547 5.54462V9.81415H340.566V5.54462C340.566 5.26324 340.338 5.03516 340.056 5.03516ZM340.057 14.457C340.338 14.457 340.566 14.2289 340.566 13.9476V9.8186H339.548V13.9476C339.548 14.2289 339.776 14.457 340.057 14.457Z" fill="#747474"/>
<path d="M278.161 13.9476C278.161 14.2289 277.933 14.457 277.652 14.457V14.457C277.37 14.457 277.142 14.2289 277.142 13.9476V9.8186H278.161V13.9476Z" fill="#747474"/>
<path d="M215.756 13.9476C215.756 14.2289 215.528 14.457 215.246 14.457V14.457C214.965 14.457 214.737 14.2289 214.737 13.9476V9.8186H215.756V13.9476Z" fill="#747474"/>
<path d="M153.351 13.9476C153.351 14.2289 153.123 14.457 152.841 14.457V14.457C152.56 14.457 152.332 14.2289 152.332 13.9476V9.8186H153.351V13.9476Z" fill="#747474"/>
<path d="M90.9453 13.9476C90.9453 14.2289 90.7172 14.457 90.4359 14.457V14.457C90.1545 14.457 89.9264 14.2289 89.9264 13.9476V9.8186H90.9453V13.9476Z" fill="#747474"/>
<path d="M28.54 13.9476C28.54 14.2289 28.312 14.457 28.0306 14.457V14.457C27.7493 14.457 27.5212 14.2289 27.5212 13.9476V9.8186H28.54V13.9476Z" fill="#747474"/>
<path d="M335.727 16.1956C335.727 16.477 335.498 16.7051 335.217 16.7051C334.936 16.7051 334.708 16.477 334.708 16.1956V9.81771H335.727V16.1956Z" fill="#747474"/>
<path d="M273.321 16.1956C273.321 16.477 273.093 16.7051 272.812 16.7051V16.7051C272.531 16.7051 272.302 16.477 272.302 16.1956V9.81771H273.321V16.1956Z" fill="#747474"/>
<path d="M210.916 16.1956C210.916 16.477 210.688 16.7051 210.407 16.7051V16.7051C210.125 16.7051 209.897 16.477 209.897 16.1956V9.81771H210.916V16.1956Z" fill="#747474"/>
<path d="M148.511 16.1956C148.511 16.477 148.283 16.7051 148.001 16.7051V16.7051C147.72 16.7051 147.492 16.477 147.492 16.1956V9.81771H148.511V16.1956Z" fill="#747474"/>
<path d="M86.1055 16.1956C86.1055 16.477 85.8774 16.7051 85.596 16.7051V16.7051C85.3147 16.7051 85.0866 16.477 85.0866 16.1956V9.81771H86.1055V16.1956Z" fill="#747474"/>
<path d="M23.7002 16.1956C23.7002 16.477 23.4721 16.7051 23.1908 16.7051V16.7051C22.9094 16.7051 22.6813 16.477 22.6813 16.1956V9.81771H23.7002V16.1956Z" fill="#747474"/>
<path d="M330.887 18.4456C330.887 18.727 330.659 18.9551 330.377 18.9551C330.096 18.9551 329.868 18.727 329.868 18.4456V9.81878H330.887V18.4456Z" fill="#747474"/>
<path d="M268.481 18.4456C268.481 18.727 268.253 18.9551 267.972 18.9551V18.9551C267.691 18.9551 267.463 18.727 267.463 18.4456V9.81878H268.481V18.4456Z" fill="#747474"/>
<path d="M206.076 18.4456C206.076 18.727 205.848 18.9551 205.567 18.9551V18.9551C205.285 18.9551 205.057 18.727 205.057 18.4456V9.81878H206.076V18.4456Z" fill="#747474"/>
<path d="M143.671 18.4456C143.671 18.727 143.443 18.9551 143.161 18.9551V18.9551C142.88 18.9551 142.652 18.727 142.652 18.4456V9.81878H143.671V18.4456Z" fill="#747474"/>
<path d="M81.2656 18.4456C81.2656 18.727 81.0375 18.9551 80.7562 18.9551V18.9551C80.4748 18.9551 80.2468 18.727 80.2468 18.4456V9.81878H81.2656V18.4456Z" fill="#747474"/>
<path d="M18.8604 18.4456C18.8604 18.727 18.6323 18.9551 18.3509 18.9551V18.9551C18.0696 18.9551 17.8415 18.727 17.8415 18.4456V9.81878H18.8604V18.4456Z" fill="#747474"/>
<path d="M326.047 15.7738C326.047 16.0551 325.819 16.2832 325.537 16.2832C325.256 16.2832 325.028 16.0551 325.028 15.7738V9.81751H326.047V15.7738Z" fill="#747474"/>
<path d="M263.642 15.7738C263.642 16.0551 263.414 16.2832 263.132 16.2832V16.2832C262.851 16.2832 262.623 16.0551 262.623 15.7738V9.81751H263.642V15.7738Z" fill="#747474"/>
<path d="M201.236 15.7738C201.236 16.0551 201.008 16.2832 200.727 16.2832V16.2832C200.446 16.2832 200.217 16.0551 200.217 15.7738V9.81751H201.236V15.7738Z" fill="#747474"/>
<path d="M138.831 15.7738C138.831 16.0551 138.603 16.2832 138.322 16.2832V16.2832C138.04 16.2832 137.812 16.0551 137.812 15.7738V9.81751H138.831V15.7738Z" fill="#747474"/>
<path d="M76.4258 15.7738C76.4258 16.0551 76.1977 16.2832 75.9163 16.2832V16.2832C75.635 16.2832 75.4069 16.0551 75.4069 15.7738V9.81751H76.4258V15.7738Z" fill="#747474"/>
<path d="M14.0205 15.7738C14.0205 16.0551 13.7924 16.2832 13.5111 16.2832V16.2832C13.2297 16.2832 13.0016 16.0551 13.0016 15.7738V9.81751H14.0205V15.7738Z" fill="#747474"/>
<path d="M321.207 13.5257C321.207 13.8071 320.979 14.0352 320.698 14.0352C320.416 14.0352 320.188 13.8071 320.188 13.5257V9.8184H321.207V13.5257Z" fill="#747474"/>
<path d="M258.802 13.5257C258.802 13.8071 258.574 14.0352 258.292 14.0352V14.0352C258.011 14.0352 257.783 13.8071 257.783 13.5257V9.8184H258.802V13.5257Z" fill="#747474"/>
<path d="M196.396 13.5257C196.396 13.8071 196.168 14.0352 195.887 14.0352V14.0352C195.606 14.0352 195.378 13.8071 195.378 13.5257V9.8184H196.396V13.5257Z" fill="#747474"/>
<path d="M133.991 13.5257C133.991 13.8071 133.763 14.0352 133.482 14.0352V14.0352C133.2 14.0352 132.972 13.8071 132.972 13.5257V9.8184H133.991V13.5257Z" fill="#747474"/>
<path d="M71.5859 13.5257C71.5859 13.8071 71.3579 14.0352 71.0765 14.0352V14.0352C70.7952 14.0352 70.5671 13.8071 70.5671 13.5257V9.8184H71.5859V13.5257Z" fill="#747474"/>
<path d="M9.18066 13.5257C9.18066 13.8071 8.95258 14.0352 8.67123 14.0352V14.0352C8.38988 14.0352 8.1618 13.8071 8.1618 13.5257V9.8184H9.18066V13.5257Z" fill="#747474"/>
<path d="M316.368 11.1351C316.368 11.4164 316.14 11.6445 315.859 11.6445C315.577 11.6445 315.349 11.4164 315.349 11.1351V9.81727H316.368V11.1351Z" fill="#747474"/>
<path d="M253.963 11.1351C253.963 11.4164 253.735 11.6445 253.453 11.6445V11.6445C253.172 11.6445 252.944 11.4164 252.944 11.1351V9.81727H253.963V11.1351Z" fill="#747474"/>
<path d="M191.558 11.1351C191.558 11.4164 191.33 11.6445 191.048 11.6445V11.6445C190.767 11.6445 190.539 11.4164 190.539 11.1351V9.81727H191.558V11.1351Z" fill="#747474"/>
<path d="M129.152 11.1351C129.152 11.4164 128.924 11.6445 128.643 11.6445V11.6445C128.362 11.6445 128.133 11.4164 128.133 11.1351V9.81727H129.152V11.1351Z" fill="#747474"/>
<path d="M66.7471 11.1351C66.7471 11.4164 66.519 11.6445 66.2376 11.6445V11.6445C65.9563 11.6445 65.7282 11.4164 65.7282 11.1351V9.81727H66.7471V11.1351Z" fill="#747474"/>
<path d="M4.3418 11.1351C4.3418 11.4164 4.11372 11.6445 3.83236 11.6445V11.6445C3.55101 11.6445 3.32293 11.4164 3.32293 11.1351V9.81727H4.3418V11.1351Z" fill="#747474"/>
<path d="M311.528 12.2601C311.528 12.5415 311.3 12.7695 311.019 12.7695C310.738 12.7695 310.509 12.5414 310.509 12.2601V9.8178H311.528V12.2601Z" fill="#747474"/>
<path d="M249.123 12.2601C249.123 12.5415 248.895 12.7695 248.614 12.7695V12.7695C248.332 12.7695 248.104 12.5414 248.104 12.2601V9.8178H249.123V12.2601Z" fill="#747474"/>
<path d="M186.718 12.2601C186.718 12.5415 186.49 12.7695 186.208 12.7695V12.7695C185.927 12.7695 185.699 12.5414 185.699 12.2601V9.8178H186.718V12.2601Z" fill="#747474"/>
<path d="M124.312 12.2601C124.312 12.5415 124.084 12.7695 123.803 12.7695V12.7695C123.522 12.7695 123.294 12.5414 123.294 12.2601V9.8178H124.312V12.2601Z" fill="#747474"/>
<path d="M61.9072 12.2601C61.9072 12.5415 61.6791 12.7695 61.3978 12.7695V12.7695C61.1164 12.7695 60.8884 12.5414 60.8884 12.2601V9.8178H61.9072V12.2601Z" fill="#747474"/>
<path d="M306.689 14.2288C306.689 14.5102 306.461 14.7383 306.18 14.7383C305.899 14.7383 305.671 14.5102 305.671 14.2288V9.81873H306.689V14.2288Z" fill="#747474"/>
<path d="M244.284 14.2288C244.284 14.5102 244.056 14.7383 243.775 14.7383V14.7383C243.493 14.7383 243.265 14.5102 243.265 14.2288V9.81873H244.284V14.2288Z" fill="#747474"/>
<path d="M181.879 14.2288C181.879 14.5102 181.651 14.7383 181.369 14.7383V14.7383C181.088 14.7383 180.86 14.5102 180.86 14.2288V9.81873H181.879V14.2288Z" fill="#747474"/>
<path d="M119.474 14.2288C119.474 14.5102 119.246 14.7383 118.964 14.7383V14.7383C118.683 14.7383 118.455 14.5102 118.455 14.2288V9.81873H119.474V14.2288Z" fill="#747474"/>
<path d="M57.0684 14.2288C57.0684 14.5102 56.8403 14.7383 56.5589 14.7383V14.7383C56.2776 14.7383 56.0495 14.5102 56.0495 14.2288V9.81873H57.0684V14.2288Z" fill="#747474"/>
<path d="M301.85 12.5413C301.85 12.8227 301.622 13.0508 301.34 13.0508C301.059 13.0508 300.831 12.8227 300.831 12.5413V9.81794H301.85V12.5413Z" fill="#747474"/>
<path d="M239.444 12.5413C239.444 12.8227 239.216 13.0508 238.935 13.0508V13.0508C238.654 13.0508 238.425 12.8227 238.425 12.5413V9.81794H239.444V12.5413Z" fill="#747474"/>
<path d="M177.039 12.5413C177.039 12.8227 176.811 13.0508 176.53 13.0508V13.0508C176.248 13.0508 176.02 12.8227 176.02 12.5413V9.81794H177.039V12.5413Z" fill="#747474"/>
<path d="M114.634 12.5413C114.634 12.8227 114.406 13.0508 114.124 13.0508V13.0508C113.843 13.0508 113.615 12.8227 113.615 12.5413V9.81794H114.634V12.5413Z" fill="#747474"/>
<path d="M52.2285 12.5413C52.2285 12.8227 52.0004 13.0508 51.7191 13.0508V13.0508C51.4377 13.0508 51.2096 12.8227 51.2096 12.5413V9.81794H52.2285V12.5413Z" fill="#747474"/>
<path d="M297.01 14.5101C297.01 14.7915 296.782 15.0195 296.5 15.0195C296.219 15.0195 295.991 14.7914 295.991 14.5101V9.81887H297.01V14.5101Z" fill="#747474"/>
<path d="M234.604 14.5101C234.604 14.7915 234.376 15.0195 234.095 15.0195V15.0195C233.814 15.0195 233.586 14.7914 233.586 14.5101V9.81887H234.604V14.5101Z" fill="#747474"/>
<path d="M172.199 14.5101C172.199 14.7915 171.971 15.0195 171.69 15.0195V15.0195C171.408 15.0195 171.18 14.7914 171.18 14.5101V9.81887H172.199V14.5101Z" fill="#747474"/>
<path d="M109.794 14.5101C109.794 14.7915 109.566 15.0195 109.285 15.0195V15.0195C109.003 15.0195 108.775 14.7914 108.775 14.5101V9.81887H109.794V14.5101Z" fill="#747474"/>
<path d="M47.3887 14.5101C47.3887 14.7915 47.1606 15.0195 46.8792 15.0195V15.0195C46.5979 15.0195 46.3698 14.7914 46.3698 14.5101V9.81887H47.3887V14.5101Z" fill="#747474"/>
<path d="M292.17 12.5413C292.17 12.8227 291.942 13.0508 291.66 13.0508C291.379 13.0508 291.151 12.8227 291.151 12.5413V9.81794H292.17V12.5413Z" fill="#747474"/>
<path d="M229.765 12.5413C229.765 12.8227 229.537 13.0508 229.255 13.0508V13.0508C228.974 13.0508 228.746 12.8227 228.746 12.5413V9.81794H229.765V12.5413Z" fill="#747474"/>
<path d="M167.359 12.5413C167.359 12.8227 167.131 13.0508 166.85 13.0508V13.0508C166.569 13.0508 166.341 12.8227 166.341 12.5413V9.81794H167.359V12.5413Z" fill="#747474"/>
<path d="M104.954 12.5413C104.954 12.8227 104.726 13.0508 104.445 13.0508V13.0508C104.163 13.0508 103.935 12.8227 103.935 12.5413V9.81794H104.954V12.5413Z" fill="#747474"/>
<path d="M42.5488 12.5413C42.5488 12.8227 42.3207 13.0508 42.0394 13.0508V13.0508C41.758 13.0508 41.53 12.8227 41.53 12.5413V9.81794H42.5488V12.5413Z" fill="#747474"/>
<path d="M287.33 14.2288C287.33 14.5102 287.102 14.7383 286.821 14.7383C286.539 14.7383 286.311 14.5102 286.311 14.2288V9.81873H287.33V14.2288Z" fill="#747474"/>
<path d="M224.925 14.2288C224.925 14.5102 224.697 14.7383 224.415 14.7383V14.7383C224.134 14.7383 223.906 14.5102 223.906 14.2288V9.81873H224.925V14.2288Z" fill="#747474"/>
<path d="M162.52 14.2288C162.52 14.5102 162.291 14.7383 162.01 14.7383V14.7383C161.729 14.7383 161.501 14.5102 161.501 14.2288V9.81873H162.52V14.2288Z" fill="#747474"/>
<path d="M100.114 14.2288C100.114 14.5102 99.8862 14.7383 99.6048 14.7383V14.7383C99.3235 14.7383 99.0954 14.5102 99.0954 14.2288V9.81873H100.114V14.2288Z" fill="#747474"/>
<path d="M37.709 14.2288C37.709 14.5102 37.4809 14.7383 37.1996 14.7383V14.7383C36.9182 14.7383 36.6901 14.5102 36.6901 14.2288V9.81873H37.709V14.2288Z" fill="#747474"/>
<path d="M282.49 12.2601C282.49 12.5415 282.262 12.7695 281.981 12.7695C281.699 12.7695 281.471 12.5414 281.471 12.2601V9.8178H282.49V12.2601Z" fill="#747474"/>
<path d="M220.085 12.2601C220.085 12.5415 219.857 12.7695 219.576 12.7695V12.7695C219.294 12.7695 219.066 12.5414 219.066 12.2601V9.8178H220.085V12.2601Z" fill="#747474"/>
<path d="M157.68 12.2601C157.68 12.5415 157.452 12.7695 157.17 12.7695V12.7695C156.889 12.7695 156.661 12.5414 156.661 12.2601V9.8178H157.68V12.2601Z" fill="#747474"/>
<path d="M95.2744 12.2601C95.2744 12.5415 95.0463 12.7695 94.765 12.7695V12.7695C94.4836 12.7695 94.2555 12.5414 94.2555 12.2601V9.8178H95.2744V12.2601Z" fill="#747474"/>
<path d="M32.8691 12.2601C32.8691 12.5415 32.6411 12.7695 32.3597 12.7695V12.7695C32.0784 12.7695 31.8503 12.5414 31.8503 12.2601V9.8178H32.8691V12.2601Z" fill="#747474"/>
</svg>
