<svg id="SvgjsSvg1009" width="970" height="62" xmlns="http://www.w3.org/2000/svg" version="1.1" xmlns:xlink="http://www.w3.org/1999/xlink" xmlns:svgjs="http://svgjs.com/svgjs" viewBox="0 0 981 60"><defs id="SvgjsDefs1010"></defs><path id="SvgjsPath1011" d="M 0 30 L 0 30 A 2.25 2.25 0 0 0 4.5 30 A 2.25 2.25 0 0 1 9 30 L 9 42.27618605730194 A 2.25 2.25 0 0 0 13.5 42.27618605730194 L 13.5 15.038162626145457 A 2.25 2.25 0 0 1 18 15.038162626145457 L 18 39.15624637513049 A 2.25 2.25 0 0 0 22.5 39.15624637513049 L 22.5 21.944553996056143 A 2.25 2.25 0 0 1 27 21.944553996056143 L 27 52.72474190929127 A 2.25 2.25 0 0 0 31.5 52.72474190929127 L 31.5 7.869388702006724 A 2.25 2.25 0 0 1 36 7.869388702006724 L 36 42.555156014383485 A 2.25 2.25 0 0 0 40.5 42.555156014383485 L 40.5 17.27746201136759 A 2.25 2.25 0 0 1 45 17.27746201136759 L 45 46.537640644936786 A 2.25 2.25 0 0 0 49.5 46.537640644936786 L 49.5 15.342767660364224 A 2.25 2.25 0 0 1 54 15.342767660364224 L 54 49.467579167149985 A 2.25 2.25 0 0 0 58.5 49.467579167149985 L 58.5 15.217608166106018 A 2.25 2.25 0 0 1 63 15.217608166106018 L 63 48.10288829602135 A 2.25 2.25 0 0 0 67.5 48.10288829602135 L 67.5 15.213084328964154 A 2.25 2.25 0 0 1 72 15.213084328964154 L 72 44.74318524533117 A 2.25 2.25 0 0 0 76.5 44.74318524533117 L 76.5 16.065073657348332 A 2.25 2.25 0 0 1 81 16.065073657348332 L 81 43.242779259946644 A 2.25 2.25 0 0 0 85.5 43.242779259946644 L 85.5 14.43196844913583 A 2.25 2.25 0 0 1 90 14.43196844913583 L 90 49.44646792715463 A 2.25 2.25 0 0 0 94.5 49.44646792715463 L 94.5 9.567335575919266 A 2.25 2.25 0 0 1 99 9.567335575919266 L 99 51.09163670107877 A 2.25 2.25 0 0 0 103.5 51.09163670107877 L 103.5 13.543788423616746 A 2.25 2.25 0 0 1 108 13.543788423616746 L 108 50.82623825542281 A 2.25 2.25 0 0 0 112.5 50.82623825542281 L 112.5 13.10950005799791 A 2.25 2.25 0 0 1 117 13.10950005799791 L 117 52.747361095000585 A 2.25 2.25 0 0 0 121.5 52.747361095000585 L 121.5 10.027259018675323 A 2.25 2.25 0 0 1 126 10.027259018675323 L 126 55.07110544020416 A 2.25 2.25 0 0 0 130.5 55.07110544020416 L 130.5 13.177357615125853 A 2.25 2.25 0 0 1 135 13.177357615125853 L 135 50.85488922398794 A 2.25 2.25 0 0 0 139.5 50.85488922398794 L 139.5 10.966709198468852 A 2.25 2.25 0 0 1 144 10.966709198468852 L 144 49.39067393573832 A 2.25 2.25 0 0 0 148.5 49.39067393573832 L 148.5 12.569655492402273 A 2.25 2.25 0 0 1 153 12.569655492402273 L 153 51.1037002667904 A 2.25 2.25 0 0 0 157.5 51.1037002667904 L 157.5 10.352975292889454 A 2.25 2.25 0 0 1 162 10.352975292889454 L 162 43.09801647140703 A 2.25 2.25 0 0 0 166.5 43.09801647140703 L 166.5 15.67451571743417 A 2.25 2.25 0 0 1 171 15.67451571743417 L 171 45.42779259946642 A 2.25 2.25 0 0 0 175.5 45.42779259946642 L 175.5 12.587750840969722 A 2.25 2.25 0 0 1 180 12.587750840969722 L 180 47.01113559911843 A 2.25 2.25 0 0 0 184.5 47.01113559911843 L 184.5 12.055446003943857 A 2.25 2.25 0 0 1 189 12.055446003943857 L 189 51.667671963809305 A 2.25 2.25 0 0 0 193.5 51.667671963809305 L 193.5 7.848277462011364 A 2.25 2.25 0 0 1 198 7.848277462011364 L 198 49.44495998144067 A 2.25 2.25 0 0 0 202.5 49.44495998144067 L 202.5 11.073773344159608 A 2.25 2.25 0 0 1 207 11.073773344159608 L 207 44.17770560259831 A 2.25 2.25 0 0 0 211.5 44.17770560259831 L 211.5 14.317364574875304 A 2.25 2.25 0 0 1 216 14.317364574875304 L 216 46.81359471059042 A 2.25 2.25 0 0 0 220.5 46.81359471059042 L 220.5 8.451455747593084 A 2.25 2.25 0 0 1 225 8.451455747593084 L 225 51.550052198120866 A 2.25 2.25 0 0 0 229.5 51.550052198120866 L 229.5 11.387426052662104 A 2.25 2.25 0 0 1 234 11.387426052662104 L 234 52.54378842361675 A 2.25 2.25 0 0 0 238.5 52.54378842361675 L 238.5 13.31005683795383 A 2.25 2.25 0 0 1 243 13.31005683795383 L 243 50.93481034682752 A 2.25 2.25 0 0 0 247.5 50.93481034682752 L 247.5 10.65305648996636 A 2.25 2.25 0 0 1 252 10.65305648996636 L 252 50.701078761164595 A 2.25 2.25 0 0 0 256.5 50.701078761164595 L 256.5 10.604802227119823 A 2.25 2.25 0 0 1 261 10.604802227119823 L 261 49.135831110080034 A 2.25 2.25 0 0 0 265.5 49.135831110080034 L 265.5 15.366894791787495 A 2.25 2.25 0 0 1 270 15.366894791787495 L 270 50.701078761164595 A 2.25 2.25 0 0 0 274.5 50.701078761164595 L 274.5 11.212504349843403 A 2.25 2.25 0 0 1 279 11.212504349843403 L 279 43.44785987704443 A 2.25 2.25 0 0 0 283.5 43.44785987704443 L 283.5 15.288481614661869 A 2.25 2.25 0 0 1 288 15.288481614661869 L 288 50.00742373274562 A 2.25 2.25 0 0 0 292.5 50.00742373274562 L 292.5 9.686463287321654 A 2.25 2.25 0 0 1 297 9.686463287321654 L 297 49.609326064261694 A 2.25 2.25 0 0 0 301.5 49.609326064261694 L 301.5 10.830994084212968 A 2.25 2.25 0 0 1 306 10.830994084212968 L 306 51.51386150098597 A 2.25 2.25 0 0 0 310.5 51.51386150098597 L 310.5 9.101380350307387 A 2.25 2.25 0 0 1 315 9.101380350307387 L 315 47.39113791903492 A 2.25 2.25 0 0 0 319.5 47.39113791903492 L 319.5 15.38348219464099 A 2.25 2.25 0 0 1 324 15.38348219464099 L 324 47.60225031898852 A 2.25 2.25 0 0 0 328.5 47.60225031898852 L 328.5 14.943162046166337 A 2.25 2.25 0 0 1 333 14.943162046166337 L 333 53.49530216912191 A 2.25 2.25 0 0 0 337.5 53.49530216912191 L 337.5 11.826238255422801 A 2.25 2.25 0 0 1 342 11.826238255422801 L 342 44.27270618257743 A 2.25 2.25 0 0 0 346.5 44.27270618257743 L 346.5 12.305764992460269 A 2.25 2.25 0 0 1 351 12.305764992460269 L 351 49.00313188725207 A 2.25 2.25 0 0 0 355.5 49.00313188725207 L 355.5 13.426168657928311 A 2.25 2.25 0 0 1 360 13.426168657928311 L 360 43.79167149982601 A 2.25 2.25 0 0 0 364.5 43.79167149982601 L 364.5 15.609674051734135 A 2.25 2.25 0 0 1 369 15.609674051734135 L 369 48.98051270154275 A 2.25 2.25 0 0 0 373.5 48.98051270154275 L 373.5 17.628813362718944 A 2.25 2.25 0 0 1 378 17.628813362718944 L 378 44.694930982484635 A 2.25 2.25 0 0 0 382.5 44.694930982484635 L 382.5 14.341491706298571 A 2.25 2.25 0 0 1 387 14.341491706298571 L 387 45.387078065189655 A 2.25 2.25 0 0 0 391.5 45.387078065189655 L 391.5 14.350539380582296 A 2.25 2.25 0 0 1 396 14.350539380582296 L 396 51.856165178053594 A 2.25 2.25 0 0 0 400.5 51.856165178053594 L 400.5 14.10172833777984 A 2.25 2.25 0 0 1 405 14.10172833777984 L 405 53.0504581835054 A 2.25 2.25 0 0 0 409.5 53.0504581835054 L 409.5 9.511541584502957 A 2.25 2.25 0 0 1 414 9.511541584502957 L 414 51.71140238951398 A 2.25 2.25 0 0 0 418.5 51.71140238951398 L 418.5 6.791207516529404 A 2.25 2.25 0 0 1 423 6.791207516529404 L 423 45.37953833661989 A 2.25 2.25 0 0 0 427.5 45.37953833661989 L 427.5 12.010207632525226 A 2.25 2.25 0 0 1 432 12.010207632525226 L 432 49.24289525577079 A 2.25 2.25 0 0 0 436.5 49.24289525577079 L 436.5 10.542976452847697 A 2.25 2.25 0 0 1 441 10.542976452847697 L 441 44.45969145110776 A 2.25 2.25 0 0 0 445.5 44.45969145110776 L 445.5 15.259830646096738 A 2.25 2.25 0 0 1 450 15.259830646096738 L 450 51.89989560375827 A 2.25 2.25 0 0 0 454.5 51.89989560375827 L 454.5 9.427096624521514 A 2.25 2.25 0 0 1 459 9.427096624521514 L 459 53.60538220624058 A 2.25 2.25 0 0 0 463.5 53.60538220624058 L 463.5 7.999072033406794 A 2.25 2.25 0 0 1 468 7.999072033406794 L 468 49.42686463287322 A 2.25 2.25 0 0 0 472.5 49.42686463287322 L 472.5 13.667439972161002 A 2.25 2.25 0 0 1 477 13.667439972161002 L 477 50.18234543556432 A 2.25 2.25 0 0 0 481.5 50.18234543556432 L 481.5 5.821598422456788 A 2.25 2.25 0 0 1 486 5.821598422456788 L 486 49.919962881336275 A 2.25 2.25 0 0 0 490.5 49.919962881336275 L 490.5 11.456791555504001 A 2.25 2.25 0 0 1 495 11.456791555504001 L 495 47.092564667671965 A 2.25 2.25 0 0 0 499.5 47.092564667671965 L 499.5 13.328152186521283 A 2.25 2.25 0 0 1 504 13.328152186521283 L 504 47.30216912191161 A 2.25 2.25 0 0 0 508.5 47.30216912191161 L 508.5 10.001623941538103 A 2.25 2.25 0 0 1 513 10.001623941538103 L 513 49.56257974712911 A 2.25 2.25 0 0 0 517.5 49.56257974712911 L 517.5 12.203224683911376 A 2.25 2.25 0 0 1 522 12.203224683911376 L 522 46.65978424776708 A 2.25 2.25 0 0 0 526.5 46.65978424776708 L 526.5 13.812202760700615 A 2.25 2.25 0 0 1 531 13.812202760700615 L 531 45.797239299385225 A 2.25 2.25 0 0 0 535.5 45.797239299385225 L 535.5 14.39728569771488 A 2.25 2.25 0 0 1 540 14.39728569771488 L 540 50.62266558403898 A 2.25 2.25 0 0 0 544.5 50.62266558403898 L 544.5 13.570931446467927 A 2.25 2.25 0 0 1 549 13.570931446467927 L 549 53.54054054054055 A 2.25 2.25 0 0 0 553.5 53.54054054054055 L 553.5 9.55225611877972 A 2.25 2.25 0 0 1 558 9.55225611877972 L 558 49.03630669295906 A 2.25 2.25 0 0 0 562.5 49.03630669295906 L 562.5 11.450759772648183 A 2.25 2.25 0 0 1 567 11.450759772648183 L 567 52.41410509221669 A 2.25 2.25 0 0 0 571.5 52.41410509221669 L 571.5 12.114255886788072 A 2.25 2.25 0 0 1 576 12.114255886788072 L 576 51.05846189537177 A 2.25 2.25 0 0 0 580.5 51.05846189537177 L 580.5 13.97958473494954 A 2.25 2.25 0 0 1 585 13.97958473494954 L 585 42.89142790859529 A 2.25 2.25 0 0 0 589.5 42.89142790859529 L 589.5 15.243243243243242 A 2.25 2.25 0 0 1 594 15.243243243243242 L 594 49.03178285581719 A 2.25 2.25 0 0 0 598.5 49.03178285581719 L 598.5 12.381162278157984 A 2.25 2.25 0 0 1 603 12.381162278157984 L 603 48.62162162162162 A 2.25 2.25 0 0 0 607.5 48.62162162162162 L 607.5 11.06020183273402 A 2.25 2.25 0 0 1 612 11.06020183273402 L 612 48.6819394501798 A 2.25 2.25 0 0 0 616.5 48.6819394501798 L 616.5 13.729265746433128 A 2.25 2.25 0 0 1 621 13.729265746433128 L 621 48.29741329312145 A 2.25 2.25 0 0 0 625.5 48.29741329312145 L 625.5 13.753392877856395 A 2.25 2.25 0 0 1 630 13.753392877856395 L 630 48.327572207400536 A 2.25 2.25 0 0 0 634.5 48.327572207400536 L 634.5 10.901867532768819 A 2.25 2.25 0 0 1 639 10.901867532768819 L 639 53.36109500057998 A 2.25 2.25 0 0 0 643.5 53.36109500057998 L 643.5 10.051386150098594 A 2.25 2.25 0 0 1 648 10.051386150098594 L 648 48.93376638441016 A 2.25 2.25 0 0 0 652.5 48.93376638441016 L 652.5 12.055446003943857 A 2.25 2.25 0 0 1 657 12.055446003943857 L 657 48.46027143022852 A 2.25 2.25 0 0 0 661.5 48.46027143022852 L 661.5 12.414337083864979 A 2.25 2.25 0 0 1 666 12.414337083864979 L 666 48.85535320728454 A 2.25 2.25 0 0 0 670.5 48.85535320728454 L 670.5 10.443452035726711 A 2.25 2.25 0 0 1 675 10.443452035726711 L 675 48.83122607586127 A 2.25 2.25 0 0 0 679.5 48.83122607586127 L 679.5 11.545760352627305 A 2.25 2.25 0 0 1 684 11.545760352627305 L 684 47.71082241039323 A 2.25 2.25 0 0 0 688.5 47.71082241039323 L 688.5 10.105672195800949 A 2.25 2.25 0 0 1 693 10.105672195800949 L 693 46.97192901055562 A 2.25 2.25 0 0 0 697.5 46.97192901055562 L 697.5 10.392181881452267 A 2.25 2.25 0 0 1 702 10.392181881452267 L 702 45.78215984224568 A 2.25 2.25 0 0 0 706.5 45.78215984224568 L 706.5 15.61118199744809 A 2.25 2.25 0 0 1 711 15.61118199744809 L 711 53.27665004059854 A 2.25 2.25 0 0 0 715.5 53.27665004059854 L 715.5 11.229091752696903 A 2.25 2.25 0 0 1 720 11.229091752696903 L 720 56 A 2.25 2.25 0 0 0 724.5 56 L 724.5 5.679851525345086 A 2.25 2.25 0 0 1 729 5.679851525345086 L 729 47.413757104744235 A 2.25 2.25 0 0 0 733.5 47.413757104744235 L 733.5 13.768472334995938 A 2.25 2.25 0 0 1 738 13.768472334995938 L 738 49.32734021575223 A 2.25 2.25 0 0 0 742.5 49.32734021575223 L 742.5 13.020531260874606 A 2.25 2.25 0 0 1 747 13.020531260874606 L 747 48.14661872172602 A 2.25 2.25 0 0 0 751.5 48.14661872172602 L 751.5 17.81429068553532 A 2.25 2.25 0 0 1 756 17.81429068553532 L 756 49.58369098712447 A 2.25 2.25 0 0 0 760.5 49.58369098712447 L 760.5 8.332328036190695 A 2.25 2.25 0 0 1 765 8.332328036190695 L 765 48.402969493098254 A 2.25 2.25 0 0 0 769.5 48.402969493098254 L 769.5 12.583227003827858 A 2.25 2.25 0 0 1 774 12.583227003827858 L 774 48.689479178749565 A 2.25 2.25 0 0 0 778.5 48.689479178749565 L 778.5 11.622665584038973 A 2.25 2.25 0 0 1 783 11.622665584038973 L 783 49.06043382438232 A 2.25 2.25 0 0 0 787.5 49.06043382438232 L 787.5 12.043382438232221 A 2.25 2.25 0 0 1 792 12.043382438232221 L 792 45.86509685651317 A 2.25 2.25 0 0 0 796.5 45.86509685651317 L 796.5 11.75234891543904 A 2.25 2.25 0 0 1 801 11.75234891543904 L 801 47.442408073309366 A 2.25 2.25 0 0 0 805.5 47.442408073309366 L 805.5 15.056257974712908 A 2.25 2.25 0 0 1 810 15.056257974712908 L 810 49.49773808142907 A 2.25 2.25 0 0 0 814.5 49.49773808142907 L 814.5 11.164250086996866 A 2.25 2.25 0 0 1 819 11.164250086996866 L 819 48.817654564435685 A 2.25 2.25 0 0 0 823.5 48.817654564435685 L 823.5 14.499826006263772 A 2.25 2.25 0 0 1 828 14.499826006263772 L 828 53.20728453775664 A 2.25 2.25 0 0 0 832.5 53.20728453775664 L 832.5 13.20450063797703 A 2.25 2.25 0 0 1 837 13.20450063797703 L 837 49.666628001391956 A 2.25 2.25 0 0 0 841.5 49.666628001391956 L 841.5 12.474654912423151 A 2.25 2.25 0 0 1 846 12.474654912423151 L 846 50.86544484398562 A 2.25 2.25 0 0 0 850.5 50.86544484398562 L 850.5 13.181881452267717 A 2.25 2.25 0 0 1 855 13.181881452267717 L 855 50.77346015543441 A 2.25 2.25 0 0 0 859.5 50.77346015543441 L 859.5 11.36933070409465 A 2.25 2.25 0 0 1 864 11.36933070409465 L 864 48.270270270270274 A 2.25 2.25 0 0 0 868.5 48.270270270270274 L 868.5 15.23570351467347 A 2.25 2.25 0 0 1 873 15.23570351467347 L 873 44.45969145110776 A 2.25 2.25 0 0 0 877.5 44.45969145110776 L 877.5 16.14499478018791 A 2.25 2.25 0 0 1 882 16.14499478018791 L 882 48.12249159030275 A 2.25 2.25 0 0 0 886.5 48.12249159030275 L 886.5 13.282913815102656 A 2.25 2.25 0 0 1 891 13.282913815102656 L 891 45.25588678807563 A 2.25 2.25 0 0 0 895.5 45.25588678807563 L 895.5 9.602018327340211 A 2.25 2.25 0 0 1 900 9.602018327340211 L 900 50.39948961837374 A 2.25 2.25 0 0 0 904.5 50.39948961837374 L 904.5 15.142210880408303 A 2.25 2.25 0 0 1 909 15.142210880408303 L 909 50.334647952673706 A 2.25 2.25 0 0 0 913.5 50.334647952673706 L 913.5 13.103468275142095 A 2.25 2.25 0 0 1 918 13.103468275142095 L 918 52.48497854077253 A 2.25 2.25 0 0 0 922.5 52.48497854077253 L 922.5 9.402969493098247 A 2.25 2.25 0 0 1 927 9.402969493098247 L 927 51.99489618373738 A 2.25 2.25 0 0 0 931.5 51.99489618373738 L 931.5 14.284189769168309 A 2.25 2.25 0 0 1 936 14.284189769168309 L 936 50.73726945829951 A 2.25 2.25 0 0 0 940.5 50.73726945829951 L 940.5 14.070061477786798 A 2.25 2.25 0 0 1 945 14.070061477786798 L 945 46.03398677647605 A 2.25 2.25 0 0 0 949.5 46.03398677647605 L 949.5 14.107760120635655 A 2.25 2.25 0 0 1 954 14.107760120635655 L 954 50.06170977844798 A 2.25 2.25 0 0 0 958.5 50.06170977844798 L 958.5 12.280129915323048 A 2.25 2.25 0 0 1 963 12.280129915323048 L 963 46.299385222132 A 2.25 2.25 0 0 0 967.5 46.299385222132 L 967.5 14.612921934810345 A 2.25 2.25 0 0 1 972 14.612921934810345 L 972 30 A 2.25 2.25 0 0 0 976.5 30 A 2.25 2.25 0 0 1 981 30" fill="none" stroke="#409EDC" stroke-width="1.6"></path></svg>