<svg width="12" height="14" viewBox="0 0 12 14" fill="none" xmlns="http://www.w3.org/2000/svg">
<path d="M5.75 12.25C3.55488 12.25 1.76923 10.4838 1.76923 8.3125C1.76923 6.14124 3.55488 4.375 5.75 4.375V6.5867C5.75 6.7539 5.94299 6.84729 6.07411 6.74353L9.97488 3.65684C10.0761 3.57676 10.0761 3.42324 9.97488 3.34316L6.07411 0.256466C5.94299 0.15271 5.75 0.246097 5.75 0.413303V2.625C2.57957 2.625 0 5.17653 0 8.3125C0 11.4485 2.57957 14 5.75 14C8.6468 14 11.0503 11.8699 11.4436 9.11015C11.506 8.67274 11.1418 8.3125 10.7 8.3125H10.5308C10.0889 8.3125 9.7393 8.67446 9.64935 9.10703C9.27679 10.8987 7.67003 12.25 5.75 12.25Z" fill="#409EDC"/>
<path d="M4.67769 9.99043C4.67769 9.74171 4.67304 9.4949 4.66374 9.25C4.65445 9.00383 4.63387 8.76786 4.602 8.54209C4.57013 8.31633 4.52432 8.10523 4.46456 7.9088C4.40614 7.71237 4.32713 7.5389 4.22754 7.38839L4.55818 7.18559C4.66706 7.35268 4.75736 7.54592 4.82906 7.76531C4.9021 7.98342 4.95787 8.23278 4.99637 8.51339C5.01231 8.63329 5.02492 8.75702 5.03422 8.88457C5.04484 9.01212 5.05281 9.13967 5.05812 9.26722C5.06476 9.3935 5.06874 9.51786 5.07007 9.64031C5.07273 9.76276 5.07406 9.87946 5.07406 9.99043H4.67769Z" fill="#409EDC"/>
<path d="M7.14672 10C7.04979 10 6.96082 9.97768 6.87982 9.93304C6.80015 9.88712 6.73243 9.82143 6.67666 9.73597L6.67068 9.72832C6.61358 9.81122 6.54188 9.87691 6.45557 9.92538C6.37058 9.97385 6.2763 9.99809 6.17273 9.99809C6.0572 9.99809 5.95961 9.97768 5.87993 9.93686C5.80159 9.89605 5.73785 9.84247 5.68872 9.77615C5.63959 9.70855 5.60307 9.63138 5.57917 9.54464C5.55527 9.45791 5.54066 9.36862 5.53535 9.27679C5.5327 9.23852 5.53137 9.20089 5.53137 9.1639C5.53137 9.11161 5.53469 9.05038 5.54133 8.98023C5.54929 8.9088 5.56125 8.83737 5.57718 8.76594C5.60108 8.66263 5.63162 8.55804 5.6688 8.45217C5.70731 8.3463 5.75379 8.23597 5.80823 8.12117C5.864 8.0051 5.92907 7.88265 6.00343 7.75383C6.07911 7.625 6.16543 7.48661 6.26236 7.33865L6.18866 7.26786L6.46752 7C6.60163 7.11735 6.73309 7.23724 6.86189 7.35969C6.99202 7.48087 7.11352 7.60969 7.22639 7.74617C7.48666 8.06505 7.67521 8.40179 7.79206 8.75638C7.83057 8.87883 7.84983 9.00638 7.84983 9.13903C7.84983 9.2449 7.83522 9.34885 7.80601 9.45089C7.77679 9.55293 7.73297 9.64477 7.67455 9.7264C7.61745 9.80676 7.54442 9.87245 7.45545 9.92347C7.36781 9.97321 7.26556 9.99872 7.14871 10H7.14672ZM6.85393 8.92092C6.85393 8.95536 6.85525 8.99617 6.85791 9.04337C6.86057 9.09056 6.86521 9.13967 6.87185 9.19069C6.87982 9.24043 6.89044 9.29018 6.90372 9.33992C6.91833 9.38967 6.93625 9.43495 6.9575 9.47577C6.98007 9.51531 7.00663 9.54847 7.03717 9.57526C7.06904 9.60204 7.10622 9.61798 7.14871 9.62309C7.21112 9.61926 7.26225 9.60077 7.30208 9.5676C7.34192 9.53444 7.37312 9.49426 7.3957 9.44707C7.41827 9.3986 7.43354 9.34694 7.44151 9.29209C7.4508 9.23597 7.45545 9.18431 7.45545 9.13712C7.45545 9.09375 7.45213 9.04911 7.44549 9.00319C7.43885 8.95727 7.42823 8.91263 7.41362 8.86926C7.36582 8.72768 7.30806 8.59503 7.24034 8.4713C7.17261 8.34758 7.10025 8.23278 7.02323 8.12691C6.94621 8.01977 6.8672 7.92219 6.7862 7.83418C6.7052 7.74617 6.62752 7.66773 6.55316 7.59885C6.46951 7.72895 6.39581 7.85013 6.33207 7.96237C6.26834 8.07462 6.21257 8.18112 6.16476 8.28189C6.11696 8.38265 6.07646 8.47959 6.04326 8.5727C6.01139 8.66454 5.98484 8.7551 5.96359 8.84439C5.95562 8.87628 5.94766 8.91709 5.93969 8.96684C5.93172 9.01658 5.92641 9.07015 5.92375 9.12755C5.92243 9.14668 5.92176 9.16582 5.92176 9.18495C5.92176 9.22321 5.92375 9.26658 5.92774 9.31505C5.93305 9.36352 5.94434 9.41135 5.9616 9.45855C5.98019 9.50574 6.00608 9.54401 6.03928 9.57334C6.0738 9.60268 6.11829 9.61735 6.17273 9.61735C6.22053 9.61607 6.2617 9.60204 6.29622 9.57526C6.33075 9.54847 6.35996 9.51467 6.38386 9.47385C6.40909 9.43176 6.42967 9.3852 6.44561 9.33418C6.46287 9.28189 6.47681 9.23023 6.48743 9.17921C6.49806 9.12819 6.50669 9.07972 6.51333 9.0338C6.52129 8.98661 6.52793 8.9477 6.53325 8.91709L6.85393 8.92092Z" fill="#409EDC"/>
</svg>
