<svg width="14" height="15" viewBox="0 0 14 15" fill="#409EDC" xmlns="http://www.w3.org/2000/svg">
<path d="M0.510862 0.0429688C0.409179 0.0429942 0.309815 0.0741624 0.225483 0.132486C0.141152 0.190809 0.0756888 0.273634 0.0374691 0.370365C-0.00075046 0.467096 -0.00998812 0.573333 0.0109378 0.675484C0.0318638 0.777635 0.0820018 0.871053 0.154937 0.943788L3.35604 4.20312H1.51953C0.674785 4.20312 0.000922246 4.95085 0.000922246 5.81805V8.26576C0.000922246 9.13295 0.688982 9.83929 1.53373 9.83929H3.82812L7.01767 12.7443C7.1982 12.9087 7.41947 12.9929 7.64769 12.9929C7.78053 12.9929 7.91343 12.9649 8.04286 12.9055C8.3903 12.7446 8.60503 12.4017 8.60503 12.0136V9.81056L12.758 13.8817C12.8051 13.932 12.8615 13.9722 12.9239 13.9999C12.9863 14.0276 13.0534 14.0422 13.1214 14.0429C13.1894 14.0437 13.2568 14.0304 13.3198 14.0041C13.3827 13.9777 13.4399 13.9387 13.4879 13.8893C13.536 13.84 13.574 13.7813 13.5997 13.7167C13.6254 13.6521 13.6383 13.5829 13.6376 13.5131C13.6369 13.4433 13.6226 13.3744 13.5957 13.3103C13.5687 13.2462 13.5295 13.1883 13.4805 13.14L0.877432 0.202098C0.829807 0.151749 0.772824 0.111724 0.709859 0.0843901C0.646894 0.0570567 0.579226 0.0429716 0.510862 0.0429688ZM7.64914 1.03967C7.42441 1.04158 7.2046 1.12723 7.02577 1.28895L5.00931 3.13157L8.61313 6.83114V2.01971C8.61313 1.63158 8.39841 1.28862 8.05097 1.12777C7.92068 1.06745 7.78398 1.03852 7.64914 1.03967Z" fill="#409EDC"/>
<path fill-rule="evenodd" clip-rule="evenodd" d="M11.7683 1.39593C11.8435 1.34776 11.9296 1.3205 12.0182 1.31683C12.1124 1.31293 12.2059 1.33588 12.2882 1.38313C12.3705 1.43038 12.4385 1.50009 12.4846 1.58455C14.2212 4.65981 14.4509 7.96375 13.142 11.0962L12.3606 10.3053C13.3994 7.5768 13.1373 4.83199 11.6004 2.11043C11.5549 2.03236 11.5299 1.94347 11.528 1.85251C11.526 1.76154 11.5471 1.67161 11.5893 1.59156C11.6314 1.51151 11.6931 1.4441 11.7683 1.39593ZM11.5542 9.489C12.2043 7.34537 11.9868 5.10237 10.9274 3.01977C10.8851 2.93325 10.8202 2.86046 10.74 2.80947C10.6598 2.75848 10.5674 2.73128 10.473 2.73088C10.3844 2.7305 10.2972 2.75381 10.22 2.7985C10.1428 2.84319 10.0782 2.90773 10.0326 2.98578C9.98708 3.06383 9.96207 3.15271 9.96009 3.24369C9.9581 3.33466 9.9792 3.4246 10.0213 3.50467C10.8885 5.20949 11.1307 6.9366 10.7285 8.65319L11.5542 9.489ZM10.3203 9.90361L11.0946 10.6874C11.0489 10.7853 11.0014 10.8829 10.9519 10.9802C10.9215 11.0424 10.8794 11.0979 10.828 11.1432C10.7765 11.1886 10.7168 11.223 10.6523 11.2444C10.5878 11.2658 10.5198 11.2739 10.4522 11.2681C10.3847 11.2622 10.3189 11.2427 10.2588 11.2105C10.1986 11.1783 10.1454 11.1342 10.102 11.0806C10.0587 11.0271 10.0261 10.9653 10.0063 10.8987C9.9865 10.8321 9.97977 10.7622 9.98655 10.6929C9.99332 10.6237 10.0134 10.5565 10.0458 10.4953C10.1459 10.2984 10.2374 10.1011 10.3203 9.90361ZM11.8479 11.4499L12.6044 12.2157C12.5691 12.2806 12.5332 12.3454 12.4965 12.41C12.4641 12.4721 12.4198 12.5268 12.3664 12.571C12.3129 12.6151 12.2513 12.6477 12.1853 12.6669C12.1193 12.6861 12.0502 12.6915 11.9822 12.6826C11.9141 12.6738 11.8485 12.651 11.7892 12.6156C11.7299 12.5802 11.6781 12.5329 11.637 12.4765C11.5959 12.4201 11.5663 12.3558 11.5499 12.2875C11.5336 12.2191 11.5308 12.148 11.5417 12.0785C11.5527 12.009 11.5771 11.9424 11.6137 11.8828C11.6954 11.7386 11.7735 11.5943 11.8479 11.4499Z" fill="#409EDC"/>
</svg>
