<svg width="24" height="24" viewBox="0 0 24 24" fill="none" xmlns="http://www.w3.org/2000/svg">
<path fill-rule="evenodd" clip-rule="evenodd" d="M24 12C24 18.6274 18.6274 24 12 24C5.37259 24 0 18.6274 0 12C0 5.37256 5.37259 0 12 0C18.6274 0 24 5.37256 24 12ZM10 7C10.5523 7 11 7.44769 11 8V17C11 17.5523 10.5523 18 10 18C9.44771 18 9 17.5523 9 17V8C9 7.44769 9.44771 7 10 7ZM15 8C15 7.44769 14.5523 7 14 7C13.4477 7 13 7.44769 13 8V17C13 17.5523 13.4477 18 14 18C14.5523 18 15 17.5523 15 17V8Z" fill="#409EDC"/>
</svg>
