<svg width="24" height="24" viewBox="0 0 24 24" fill="none" xmlns="http://www.w3.org/2000/svg">
<path d="M12 0C18.6274 0 24 5.37258 24 12C24 18.6274 18.6274 24 12 24C5.37258 24 0 18.6274 0 12C0 5.37258 5.37258 0 12 0ZM8.46335 7.90249C8.42168 7.98581 8.4 8.07767 8.4 8.17082V15.8292C8.4 16.1605 8.66863 16.4292 9 16.4292C9.09314 16.4292 9.18502 16.4075 9.26833 16.3658L16.9267 12.5366C17.2231 12.3884 17.3432 12.0281 17.195 11.7317C17.137 11.6155 17.0428 11.5214 16.9267 11.4634L9.26833 7.63416C8.97194 7.48597 8.61154 7.6061 8.46335 7.90249Z" fill="#409EDC"/>
</svg>
