<svg width="14" height="12" viewBox="0 0 14 12" fill="#409EDC" xmlns="http://www.w3.org/2000/svg">
<path d="M7.65998 1.1434e-06C7.61452 -7.19297e-05 7.56885 0.00335954 7.52328 0.00971005C7.34102 0.035112 7.16125 0.112556 7.01284 0.248272V0.248965L3.83302 3.15956H1.55153C0.700772 3.15956 0 3.88123 0 4.75737V7.24285C0 8.11898 0.700772 8.84065 1.55153 8.84065H3.83302L7.01284 11.7512C7.30963 12.023 7.73055 12.063 8.04921 11.9156C8.36788 11.7683 8.61959 11.4175 8.61959 11.0085V0.991697C8.61959 0.582848 8.36857 0.232008 8.04989 0.0846073C7.93038 0.0293322 7.79638 0.000220398 7.65998 1.1434e-06Z" fill="#409EDC"/>
<path d="M12.0214 0.310979C11.9317 0.314708 11.8446 0.342386 11.7685 0.391296C11.6923 0.440206 11.6299 0.508665 11.5872 0.589948C11.5446 0.671232 11.5232 0.762545 11.5252 0.854918C11.5271 0.94729 11.5524 1.03755 11.5985 1.11682C13.4544 4.4137 13.461 7.58331 11.5992 10.8791C11.5622 10.9396 11.5374 11.0072 11.5263 11.0778C11.5152 11.1484 11.5181 11.2206 11.5347 11.29C11.5512 11.3595 11.5812 11.4247 11.6228 11.482C11.6644 11.5392 11.7168 11.5873 11.7768 11.6232C11.8369 11.6592 11.9033 11.6823 11.9722 11.6913C12.0411 11.7002 12.111 11.6948 12.1778 11.6753C12.2446 11.6559 12.307 11.6227 12.3611 11.5779C12.4152 11.5331 12.46 11.4775 12.4928 11.4145C14.5062 7.85039 14.4991 4.14588 12.4934 0.582829C12.4468 0.497069 12.378 0.426279 12.2947 0.378299C12.2114 0.330319 12.1168 0.307019 12.0214 0.310979ZM10.4827 1.73056C10.3929 1.73018 10.3047 1.75384 10.2265 1.79922C10.1484 1.84461 10.083 1.91014 10.0369 1.9894C9.99076 2.06866 9.96545 2.15891 9.96344 2.25128C9.96143 2.34366 9.98279 2.43498 10.0254 2.51629C11.2181 4.86853 11.2181 7.12811 10.0254 9.48035C9.99271 9.54248 9.97233 9.6107 9.96548 9.68103C9.95862 9.75135 9.96543 9.82238 9.98549 9.88997C10.0056 9.95756 10.0385 10.0204 10.0824 10.0747C10.1262 10.1291 10.1802 10.1739 10.241 10.2066C10.3019 10.2392 10.3684 10.2591 10.4368 10.265C10.5052 10.2709 10.5741 10.2628 10.6394 10.241C10.7047 10.2192 10.7651 10.1843 10.8172 10.1383C10.8692 10.0922 10.9119 10.0359 10.9426 9.97273C12.2668 7.36111 12.2668 4.63553 10.9426 2.02391C10.8997 1.93605 10.834 1.86215 10.7528 1.81037C10.6717 1.75859 10.5781 1.73097 10.4827 1.73056Z" fill="#409EDC"/>
</svg>
